<svg width="40" height="40" viewBox="0 0 40 40" fill="none" xmlns="http://www.w3.org/2000/svg">
    <!-- 背景圆形 -->
    <circle cx="20" cy="20" r="20" fill="#2979FF"/>
    
    <!-- 同步箭头图标 -->
    <path d="M28.5 20c0-4.7-3.8-8.5-8.5-8.5-3.2 0-6 1.8-7.4 4.4l2.4 2.4h-7v-7l2.9 2.9C12.9 11 16.2 9 20 9c6.1 0 11 4.9 11 11h-2.5z" fill="#FFFFFF"/>
    <path d="M11.5 20c0 4.7 3.8 8.5 8.5 8.5 3.2 0 6-1.8 7.4-4.4l-2.4-2.4h7v7l-2.9-2.9C27.1 29 23.8 31 20 31c-6.1 0-11-4.9-11-11h2.5z" fill="#FFFFFF"/>
    
    <!-- 堆叠的文件图标 -->
    <path d="M17 15h6v2h-6z" fill="#B3E5FC"/>
    <path d="M17 19h6v2h-6z" fill="#B3E5FC"/>
    <path d="M17 23h6v2h-6z" fill="#B3E5FC"/>
</svg>