<?xml version="1.0" encoding="UTF-8"?>
<svg width="80" height="80" viewBox="0 0 80 80" fill="none" xmlns="http://www.w3.org/2000/svg">
    <!-- 背景圆形 -->
    <circle cx="40" cy="40" r="40" fill="#2979FF"/>
    
    <!-- 外圈光晕效果 -->
    <circle cx="40" cy="40" r="36" stroke="#64B5F6" stroke-width="2" stroke-opacity="0.5"/>
    
    <!-- 同步箭头图标 -->
    <path d="M57 40c0-9.4-7.6-17-17-17-6.4 0-12 3.6-14.8 8.8l4.8 4.8h-14v-14l5.8 5.8C25.8 22 32.4 18 40 18c12.2 0 22 9.8 22 22h-5z" fill="#FFFFFF"/>
    <path d="M23 40c0 9.4 7.6 17 17 17 6.4 0 12-3.6 14.8-8.8l-4.8-4.8h14v14l-5.8-5.8C54.2 58 47.6 62 40 62c-12.2 0-22-9.8-22-22h5z" fill="#FFFFFF"/>
    
    <!-- 堆叠的文件图标 -->
    <path d="M34 30h12v4h-12z" fill="#B3E5FC"/>
    <path d="M34 38h12v4h-12z" fill="#B3E5FC"/>
    <path d="M34 46h12v4h-12z" fill="#B3E5FC"/>
    
    <!-- 反光效果 -->
    <path d="M40 4c19.9 0 36 16.1 36 36 0 19.9-16.1 36-36 36" stroke="#90CAF9" stroke-width="2" stroke-opacity="0.3"/>
</svg> 